<svg xmlns="http://www.w3.org/2000/svg"><symbol id="mechastilts" viewBox="0 0 256 256"><path d="M121.7 157.4h13.5v13.18h-13.5zm-25.2 0h21v13.18h-21zm42.9 0h21v13.18h-21zm-11-87.3c-24.6 0-45.2 14.9-46.2 41.9h92.5c-1.1-27-21.7-41.9-46.3-41.9zm-49.6 87.3h13.5v13.18H78.8zm-12.6-4.2h124.5v-37H66.2zm61.2-14.2h51.3a2.1 2.1 0 1 1 0 4.1h-51.3a2.1 2.1 0 1 1 0-4.1z"/><path d="M128.4.3L17.6 64v127.3L128.4 255l110.9-63.7V64zm66.5 155a2.1 2.1 0 0 1-2.1 2.1h-10.5v13.1h10.5a2.3 2.3 0 0 1 2.1 2.1 2.3 2.3 0 0 1-2.1 2.1H64.1a2.3 2.3 0 0 1-2.1-2.1 2.3 2.3 0 0 1 2.1-2.1h10.5v-13.1H64.1a2 2 0 0 1-2.1-2.1v-41.2a1.9 1.9 0 0 1 2.1-2.1H78c1-29.7 23.3-46 50.4-46s49.4 16.3 50.5 46h13.9a2 2 0 0 1 2.1 2.1z"/><path d="M164.6 157.4h13.5v13.18h-13.5z"/></symbol><symbol id="superdomes" viewBox="0 0 256 256"><path d="M125.9 128.8V86.7l-30 42.1h30zm-56.1 19.8h56.1v23.15H69.8zm60.3-66.3v46.5h57.5a61.8 61.8 0 0 0-57.5-46.5zm0 66.3h9.4v23.15h-9.4zm-6.3-66.1c-26.7 1.7-49 21-55.5 46.3h22.4zm19.8 66.1h42.6v23.15h-42.6z"/><path d="M128 1L17.1 64.5v127L128 255l110.9-63.5v-127zm90.6 146.6h-27.7v25.2a2 2 0 0 1-2.1 2.1H67.2a2 2 0 0 1-2.1-2.1v-25.2H37.4a2.2 2.2 0 0 1-2.1-2.1 2.3 2.3 0 0 1 2.1-2.1h15.8v-13.5a1.9 1.9 0 0 1 2.1-2.1h8.2a66.5 66.5 0 0 1 64.3-50.7c.2-.2.4-.2.8 0a66.2 66.2 0 0 1 63.9 50.7h8.2a1.9 1.9 0 0 1 2.1 2.1v13.5h15.8a2.3 2.3 0 0 1 2.1 2.1 2.2 2.2 0 0 1-2.1 2.1z"/><path d="M57.9 133h140.2v11.47H57.9z"/></symbol><symbol id="spacebubbles" viewBox="0 0 256 256"><path d="M85.9 171.1h28.6l-8.6-10.5-20 10.5zm11-21.2H83l-18.5 21.8 2.9 4.2 35.6-18.7-6.1-7.3zm-25.7-15.2h115v10.93h-115zm100.5-4.2a50.1 50.1 0 0 0 2.5-16 45.5 45.5 0 0 0-91 0c0 5.5.4 11.2 2.5 16zm-69.4 19.4l17.7 21.2h15.1l17.7-21.2h-50.5z"/><path d="M127.6 0L16.7 64v128l110.9 64 110.8-64V64zm67.2 173l-4.8 6.9a2.2 2.2 0 0 1-2.7.7l-10.1-5.3H77.7l-10.1 5.3a2.2 2.2 0 0 1-2.7-.7l-4.8-6.9a2.2 2.2 0 0 1 .2-2.5l17.4-20.6h-8.6a2.1 2.1 0 0 1-2.1-2.1v-15.2a2.1 2.1 0 0 1 2.1-2.1h12.2a57.3 57.3 0 0 1-2.3-16 49.9 49.9 0 0 1 49.8-49.6c27.1 0 49.6 22.5 49.6 49.6a50.8 50.8 0 0 1-2.3 16h12.2a2 2 0 0 1 2.1 2.1v15.2a2 2 0 0 1-2.1 2.1h-10.7l17.2 20.6a2.1 2.1 0 0 1 0 2.5z"/><path d="M140.6 171.1h28.6l-20-10.5-8.6 10.5zm17.6-21.2l-6.3 7.3 35.8 18.7 2.9-4-18.5-22h-13.9z"/></symbol><symbol id="mechastilts" viewBox="0 0 256 256"><path d="M121.7 157.4h13.5v13.18h-13.5zm-25.2 0h21v13.18h-21zm42.9 0h21v13.18h-21zm-11-87.3c-24.6 0-45.2 14.9-46.2 41.9h92.5c-1.1-27-21.7-41.9-46.3-41.9zm-49.6 87.3h13.5v13.18H78.8zm-12.6-4.2h124.5v-37H66.2zm61.2-14.2h51.3a2.1 2.1 0 1 1 0 4.1h-51.3a2.1 2.1 0 1 1 0-4.1z"/><path d="M128.4.3L17.6 64v127.3L128.4 255l110.9-63.7V64zm66.5 155a2.1 2.1 0 0 1-2.1 2.1h-10.5v13.1h10.5a2.3 2.3 0 0 1 2.1 2.1 2.3 2.3 0 0 1-2.1 2.1H64.1a2.3 2.3 0 0 1-2.1-2.1 2.3 2.3 0 0 1 2.1-2.1h10.5v-13.1H64.1a2 2 0 0 1-2.1-2.1v-41.2a1.9 1.9 0 0 1 2.1-2.1H78c1-29.7 23.3-46 50.4-46s49.4 16.3 50.5 46h13.9a2 2 0 0 1 2.1 2.1z"/><path d="M164.6 157.4h13.5v13.18h-13.5z"/></symbol><symbol id="spacebubbles" viewBox="0 0 256 256"><path d="M85.9 171.1h28.6l-8.6-10.5-20 10.5zm11-21.2H83l-18.5 21.8 2.9 4.2 35.6-18.7-6.1-7.3zm-25.7-15.2h115v10.93h-115zm100.5-4.2a50.1 50.1 0 0 0 2.5-16 45.5 45.5 0 0 0-91 0c0 5.5.4 11.2 2.5 16zm-69.4 19.4l17.7 21.2h15.1l17.7-21.2h-50.5z"/><path d="M127.6 0L16.7 64v128l110.9 64 110.8-64V64zm67.2 173l-4.8 6.9a2.2 2.2 0 0 1-2.7.7l-10.1-5.3H77.7l-10.1 5.3a2.2 2.2 0 0 1-2.7-.7l-4.8-6.9a2.2 2.2 0 0 1 .2-2.5l17.4-20.6h-8.6a2.1 2.1 0 0 1-2.1-2.1v-15.2a2.1 2.1 0 0 1 2.1-2.1h12.2a57.3 57.3 0 0 1-2.3-16 49.9 49.9 0 0 1 49.8-49.6c27.1 0 49.6 22.5 49.6 49.6a50.8 50.8 0 0 1-2.3 16h12.2a2 2 0 0 1 2.1 2.1v15.2a2 2 0 0 1-2.1 2.1h-10.7l17.2 20.6a2.1 2.1 0 0 1 0 2.5z"/><path d="M140.6 171.1h28.6l-20-10.5-8.6 10.5zm17.6-21.2l-6.3 7.3 35.8 18.7 2.9-4-18.5-22h-13.9z"/></symbol><symbol id="superdomes" viewBox="0 0 256 256"><path d="M125.9 128.8V86.7l-30 42.1h30zm-56.1 19.8h56.1v23.15H69.8zm60.3-66.3v46.5h57.5a61.8 61.8 0 0 0-57.5-46.5zm0 66.3h9.4v23.15h-9.4zm-6.3-66.1c-26.7 1.7-49 21-55.5 46.3h22.4zm19.8 66.1h42.6v23.15h-42.6z"/><path d="M128 1L17.1 64.5v127L128 255l110.9-63.5v-127zm90.6 146.6h-27.7v25.2a2 2 0 0 1-2.1 2.1H67.2a2 2 0 0 1-2.1-2.1v-25.2H37.4a2.2 2.2 0 0 1-2.1-2.1 2.3 2.3 0 0 1 2.1-2.1h15.8v-13.5a1.9 1.9 0 0 1 2.1-2.1h8.2a66.5 66.5 0 0 1 64.3-50.7c.2-.2.4-.2.8 0a66.2 66.2 0 0 1 63.9 50.7h8.2a1.9 1.9 0 0 1 2.1 2.1v13.5h15.8a2.3 2.3 0 0 1 2.1 2.1 2.2 2.2 0 0 1-2.1 2.1z"/><path d="M57.9 133h140.2v11.47H57.9z"/></symbol></svg>